<svg width="256" height="116" xmlns="http://www.w3.org/2000/svg"><g fill="none" fill-rule="nonzero"><g fill="#000042"><path d="M250.36 91.8511l4.3116 4.3145c-2.7395 3.2638-7.2268 5.0705-11.5972 5.0705-8.4512 0-14.804-5.8295-14.804-14.6872 0-7.8699 5.362-14.7471 13.7543-14.7471 7.81 0 13.347 6.5866 13.347 14.4555 0 .757-.058 1.515-.1748 2.1552h-19.583c.4075 3.964 3.6134 6.7025 7.6353 6.7025 3.2049 0 5.7696-1.8067 7.1109-3.2639zm-14.3965-8.9755h11.657c-.2336-2.5058-2.5067-4.9536-5.5958-4.9536-3.147 0-5.7126 2.389-6.0612 4.9536zM204.7814 72.385h-7.869l12.9974 28.2659h5.2453l12.9974-28.2659h-7.868l-7.752 17.251zM193.4739 72.385v28.2669h-7.5773V72.385h7.5773zm-7.752-9.2563c-.0001-2.1916 1.7712-3.8696 3.9628-3.8696 2.1907 0 3.964 1.679 3.964 3.8696 0 2.1916-1.7724 3.8697-3.964 3.8697s-3.9629-1.6781-3.9629-3.8697zM179.2482 94.241c-.5244.117-1.9815.2917-3.089.2917-1.8657 0-3.0891-.5243-3.8472-1.3992-.6411-.757-.9328-1.8067-.9328-3.5554V78.7958h9.3261V72.386h-9.326v-9.3889h-7.5764v9.389h-7.8689v6.4097h7.869v9.9084c0 4.0228.6411 6.5276 2.0982 8.4511 1.9226 2.5648 5.2463 4.0798 9.7925 4.0798 1.4561 0 3.7302-.2327 4.721-.5842l-1.1665-6.4098zM152.2323 72.385v28.2669h-7.5773V72.385h7.5773zm-7.709-9.2563c0-2.1916 1.7704-3.8696 3.963-3.8696 2.1906 0 3.964 1.679 3.964 3.8696 0 2.1916-1.7734 3.8697-3.964 3.8697-2.1916 0-3.963-1.6781-3.963-3.8697zM116.8604 97.447c3.3228 2.4478 7.4605 3.7881 11.3655 3.7881 5.9463 0 11.2486-3.3217 11.2486-8.7428 0-9.7915-13.6965-8.3343-13.6965-12.0066 0-1.4571 1.7488-2.2731 3.847-2.2731 2.0395 0 3.963.8749 5.4201 1.9235l3.5555-5.478c-1.8656-1.4571-5.8865-2.8563-9.5588-2.8563-5.5948 0-10.8401 3.3807-10.8401 8.8007 0 9.0934 13.6974 7.5783 13.6974 11.8329 0 1.3982-1.574 2.39-3.6143 2.39-2.8554 0-5.8276-1.0497-7.7511-2.7985l-3.6733 5.42zM99.5967 94.241c-4.4293 0-7.4595-3.4385-7.4595-7.693 0-4.2546 3.0302-7.7531 7.4595-7.7531 4.4303 0 7.4605 3.4975 7.4605 7.753 0 4.2556-3.0302 7.6932-7.4605 7.6932M84.56 86.5479c0 8.1596 6.4698 14.6872 15.0368 14.6872 8.568 0 15.0378-6.5276 15.0378-14.6872 0-8.1605-6.4698-14.747-15.0378-14.747-8.567.0009-15.0368 6.5875-15.0368 14.747M27.3959 82.8766c.3496-2.5647 2.9143-4.9546 6.0612-4.9546 3.089 0 5.3622 2.4468 5.5959 4.9546H27.3959zm14.3966 8.9745c-1.3413 1.4572-3.905 3.2639-7.111 3.2639-4.0218 0-7.2277-2.7395-7.6352-6.7025h19.583c.1168-.6411.1748-1.3992.1748-2.1572 0-7.868-5.537-14.4535-13.347-14.4535-8.3922 0-13.7544 6.8772-13.7544 14.7451 0 8.8597 6.353 14.6882 14.804 14.6882 4.3715 0 8.8588-1.8076 11.5983-5.0715l-4.3125-4.3125zM18.1062 72.0355c-.816-.1169-1.4572-.2327-2.5647-.2327-3.4386 0-6.5277 1.3403-8.2175 3.4386V72.385H.0383v28.2679h7.5773V82.8766c.9318-1.6918 3.5545-4.0798 6.8772-4.0798 1.1076 0 2.2142.1159 2.7395.2907l.8739-7.052z"/></g><path fill="#F624B5" d="M95.6564 19.7711l-9.499-10.1862L99.6773 6.596z"/><path d="M120.9245 46.9186c-9.8985-9.8985-25.9476-9.8995-35.847 0-9.8986 9.8985-9.8976 25.9476.0009 35.846l35.846-35.846z" fill="#0E71F7"/><path fill="#7072FD" d="M64.816 98.038l4.3017-4.3016L11.713 36.3327l-7.214 7.214L58.0743 97.122z"/><path d="M28.4524 10.9723c0 2.6295 2.1258 4.6444 4.7563 4.6444 2.6295 0 4.7553-2.0149 4.7553-4.6444S35.8382 6.328 33.2087 6.328c-2.6305 0-4.7563 2.0148-4.7563 4.6443" fill="#8741D8"/><path d="M59.5628 82.2934c1.573-2.0993 4.0798-3.4976 6.994-3.4976 4.4294 0 7.2848 3.6723 7.2848 7.7531 0 4.4293-3.205 7.6932-7.4595 7.6932-2.8563 0-5.3621-1.3992-6.8193-3.4976v-8.4511zm-7.5773 30.8276h7.5773V98.6704c2.2731 1.7488 4.721 2.5647 7.5763 2.5647 4.1967 0 8.2185-1.8646 10.7243-4.7789 2.2152-2.5647 3.5555-6.0622 3.5555-9.9083 0-8.3353-6.1781-14.747-13.8713-14.747-3.2059 0-6.0622 1.0486-8.2764 2.8563V72.385h-7.2857v40.736z" fill="#000042"/><g><path d="M63.8203 69.46c16.1512 0 29.2439-13.0926 29.2439-29.2439 0-16.1502-13.0927-29.2438-29.2439-29.2438S34.5755 24.066 34.5755 40.2161c0 16.1513 13.0926 29.2439 29.2448 29.2439" fill="#000042"/><path fill="#13D7D5" d="M52.7583 25.2766h10.5063v31.0888H52.7583z"/><path d="M72.5631 38.3407c3.6252 0 6.564-2.9388 6.564-6.563 0-3.6251-2.9388-6.564-6.564-6.564-3.6251 0-6.564 2.9389-6.564 6.564 0 3.6242 2.9389 6.563 6.564 6.563" fill="#FFDE00"/></g></g></svg>
